<svg style="color: blue" xmlns="http://www.w3.org/2000/svg" xmlns:xlink="http://www.w3.org/1999/xlink" width="40" zoomAndPan="magnify" viewBox="0 0 30 30.000001" height="40" preserveAspectRatio="xMidYMid meet" version="1.0"><defs><clipPath id="id1"><path d="M 2.683594 3.355469 L 28.085938 3.355469 L 28.085938 25.855469 L 2.683594 25.855469 Z M 2.683594 3.355469 " clip-rule="nonzero" fill="blue"></path></clipPath></defs><g clip-path="url(#id1)"><path fill="blue" d="M 20.933594 19.726562 L 20.933594 18.097656 C 20.933594 17.691406 21.269531 17.363281 21.679688 17.363281 C 22.089844 17.363281 22.425781 17.691406 22.425781 18.097656 L 22.425781 18.421875 L 23.421875 17.546875 C 23.703125 17.300781 24.128906 17.300781 24.410156 17.546875 L 27.761719 20.488281 C 28.070312 20.757812 28.097656 21.222656 27.824219 21.527344 C 27.675781 21.691406 27.472656 21.773438 27.265625 21.773438 L 27.265625 25.082031 C 27.265625 25.488281 26.933594 25.816406 26.523438 25.816406 L 21.308594 25.816406 C 20.894531 25.816406 20.5625 25.488281 20.5625 25.082031 L 20.5625 21.773438 C 20.359375 21.773438 20.152344 21.691406 20.007812 21.527344 C 19.734375 21.222656 19.761719 20.757812 20.066406 20.488281 Z M 25.777344 20.714844 L 23.914062 19.082031 L 22.054688 20.714844 L 22.054688 24.347656 L 25.777344 24.347656 Z M 8.644531 7.808594 L 8.644531 5.601562 C 8.644531 4.382812 9.640625 3.394531 10.875 3.394531 L 16.84375 3.394531 C 18.074219 3.394531 19.074219 4.386719 19.074219 5.601562 L 19.074219 7.808594 L 22.800781 7.808594 C 24.035156 7.808594 25.03125 8.792969 25.03125 10.011719 L 25.03125 15.160156 C 25.03125 15.566406 24.699219 15.894531 24.289062 15.894531 C 23.875 15.894531 23.542969 15.566406 23.542969 15.160156 L 23.542969 10.011719 C 23.542969 9.605469 23.210938 9.277344 22.800781 9.277344 L 20.5625 9.277344 L 20.5625 16.261719 C 20.5625 16.664062 20.230469 16.996094 19.816406 16.996094 C 19.40625 16.996094 19.074219 16.664062 19.074219 16.261719 L 19.074219 9.277344 L 8.644531 9.277344 L 8.644531 21.773438 L 18.328125 21.773438 C 18.738281 21.773438 19.074219 22.101562 19.074219 22.507812 C 19.074219 22.914062 18.738281 23.242188 18.328125 23.242188 L 4.917969 23.242188 C 3.683594 23.242188 2.683594 22.257812 2.683594 21.039062 L 2.683594 10.011719 C 2.683594 8.792969 3.6875 7.808594 4.917969 7.808594 Z M 7.152344 9.277344 L 4.917969 9.277344 C 4.507812 9.277344 4.171875 9.605469 4.171875 10.011719 L 4.171875 21.039062 C 4.171875 21.445312 4.503906 21.773438 4.917969 21.773438 L 7.152344 21.773438 Z M 10.132812 7.808594 L 17.582031 7.808594 L 17.582031 5.601562 C 17.582031 5.195312 17.25 4.867188 16.84375 4.867188 L 10.875 4.867188 C 10.464844 4.867188 10.132812 5.195312 10.132812 5.601562 Z M 10.132812 7.808594 " fill-opacity="1" fill-rule="nonzero"></path></g></svg>